<svg width="1344" height="384" xmlns="http://www.w3.org/2000/svg" xmlns:xlink="http://www.w3.org/1999/xlink" overflow="hidden"><g><rect x="0" y="0" width="1344" height="384" fill="#FFFFFF"/><g><g><g><path d="M1305.34 291.826C1305.34 293.671 1309.77 297.371 1318.63 302.907 1323.99 300.134 1327.68 295.704 1329.71 289.615 1328.74 285.686 1325.05 281.996 1318.63 278.535 1309.77 285.321 1305.34 289.751 1305.34 291.826Z" fill-rule="evenodd" transform="matrix(1 0 0 1.00205 7 22)"/><path d="M1305.34 258.593C1305.34 259.427 1308.29 263.117 1314.2 269.674 1321.08 269.674 1326.25 265.243 1329.71 256.382 1324.31 248.992 1320.62 245.302 1318.63 245.302L1316.42 245.302C1314.57 245.302 1310.87 249.732 1305.34 258.593Z" fill-rule="evenodd" transform="matrix(1 0 0 1.00205 7 22)"/><path d="M1305.34 225.36C1308.29 225.36 1312.72 228.311 1318.63 234.221 1326.02 228.821 1329.71 225.131 1329.71 223.149L1329.71 218.71C1329.06 215.666 1325.37 212.715 1318.63 209.849 1312.22 213.497 1307.79 218.668 1305.34 225.36Z" fill-rule="evenodd" transform="matrix(1 0 0 1.00205 7 22)"/><path d="M1305.34 189.908C1305.34 190.741 1308.29 194.432 1314.2 200.988 1321.08 200.988 1326.25 196.558 1329.71 187.697 1324.31 180.307 1320.62 176.616 1318.63 176.616L1316.42 176.616C1314.57 176.616 1310.87 181.047 1305.34 189.908Z" fill-rule="evenodd" transform="matrix(1 0 0 1.00205 7 22)"/><path d="M1305.34 156.675C1308.29 156.675 1312.72 159.634 1318.63 165.536 1326.02 160.136 1329.71 156.445 1329.71 154.464L1329.71 150.033C1329.06 146.98 1325.37 144.029 1318.63 141.164 1312.22 144.812 1307.79 149.982 1305.34 156.675Z" fill-rule="evenodd" transform="matrix(1 0 0 1.00205 7 22)"/><path d="M1305.34 121.231 1314.2 132.303C1321.08 132.303 1326.25 127.872 1329.71 119.011 1324.31 111.63 1320.62 107.931 1318.63 107.931L1316.42 107.931C1314.57 107.931 1310.87 112.361 1305.34 121.231Z" fill-rule="evenodd" transform="matrix(1 0 0 1.00205 7 22)"/><path d="M1305.34 87.9892C1308.29 87.9892 1312.72 90.9485 1318.63 96.8587 1326.02 91.4588 1329.71 87.7596 1329.71 85.7782L1329.71 81.3477C1329.06 78.3033 1325.37 75.344 1318.63 72.4867 1312.22 76.1263 1307.79 81.2967 1305.34 87.9892Z" fill-rule="evenodd" transform="matrix(1 0 0 1.00205 7 22)"/><path d="M1305.34 52.5452 1314.2 63.6172C1321.08 63.6172 1326.25 59.1867 1329.71 50.3257 1324.31 42.9444 1320.62 39.2452 1318.63 39.2452L1316.42 39.2452C1314.57 39.2452 1310.87 43.6842 1305.34 52.5452Z" fill-rule="evenodd" transform="matrix(1 0 0 1.00205 7 22)"/><path d="M0 290.976C0 292.821 4.4305 296.52 13.2915 302.056 18.6489 299.284 22.3396 294.854 24.372 288.765 23.4026 284.836 19.7119 281.145 13.2915 277.684 4.4305 284.47 0 288.901 0 290.976Z" fill-rule="evenodd" transform="matrix(1 0 0 1.00205 7 22)"/><path d="M0 257.743C0 258.576 2.95083 262.267 8.861 268.823 15.7406 268.823 20.9109 264.393 24.372 255.532 18.9721 248.142 15.2814 244.451 13.2915 244.451L11.0805 244.451C9.23517 244.451 5.536 248.882 0 257.743Z" fill-rule="evenodd" transform="matrix(1 0 0 1.00205 7 22)"/><path d="M0 224.51C2.95083 224.51 7.38133 227.461 13.2915 233.371 20.6813 227.971 24.372 224.28 24.372 222.299L24.372 217.86C23.7257 214.815 20.035 211.865 13.2915 208.999 6.8796 212.647 2.44911 217.817 0 224.51Z" fill-rule="evenodd" transform="matrix(1 0 0 1.00205 7 22)"/><path d="M0 189.057C0 189.891 2.95083 193.581 8.861 200.138 15.7406 200.138 20.9109 195.707 24.372 186.846 18.9721 179.456 15.2814 175.766 13.2915 175.766L11.0805 175.766C9.23517 175.766 5.536 180.196 0 189.057Z" fill-rule="evenodd" transform="matrix(1 0 0 1.00205 7 22)"/><path d="M0 155.824C2.95083 155.824 7.38133 158.784 13.2915 164.685 20.6813 159.285 24.372 155.595 24.372 153.613L24.372 149.183C23.7257 146.13 20.035 143.179 13.2915 140.313 6.8796 143.961 2.44911 149.132 0 155.824Z" fill-rule="evenodd" transform="matrix(1 0 0 1.00205 7 22)"/><path d="M0 120.38 8.861 131.452C15.7406 131.452 20.9109 127.022 24.372 118.161 18.9721 110.779 15.2814 107.08 13.2915 107.08L11.0805 107.08C9.23517 107.08 5.536 111.511 0 120.38Z" fill-rule="evenodd" transform="matrix(1 0 0 1.00205 7 22)"/><path d="M0 87.1388C2.95083 87.1388 7.38133 90.0981 13.2915 96.0083 20.6813 90.6084 24.372 86.9092 24.372 84.9278L24.372 80.4973C23.7257 77.4529 20.035 74.4936 13.2915 71.6363 6.8796 75.276 2.44911 80.4463 0 87.1388Z" fill-rule="evenodd" transform="matrix(1 0 0 1.00205 7 22)"/><path d="M0 51.6948 8.861 62.7668C15.7406 62.7668 20.9109 58.3363 24.372 49.4753 18.9721 42.094 15.2814 38.3948 13.2915 38.3948L11.0805 38.3948C9.23517 38.3948 5.536 42.8338 0 51.6948Z" fill-rule="evenodd" transform="matrix(1 0 0 1.00205 7 22)"/><path d="M1302.91 13.2915C1302.91 15.1368 1307.35 18.836 1316.21 24.372 1321.56 21.5997 1325.25 17.1692 1327.28 11.0805 1326.31 7.15173 1322.62 3.46106 1316.21 0 1307.35 6.78606 1302.91 11.2166 1302.91 13.2915Z" fill-rule="evenodd" transform="matrix(1 0 0 1.00205 7 22)"/><path d="M1269.67 13.2915C1275.07 20.6813 1278.77 24.372 1280.75 24.372 1288.14 18.9721 1291.83 15.2814 1291.83 13.2915L1291.83 8.861C1288.23 2.95083 1285.28 0 1282.97 0L1280.75 0C1275.4 2.77225 1271.71 7.20275 1269.67 13.2915Z" fill-rule="evenodd" transform="matrix(1 0 0 1.00205 7 22)"/><path d="M1234.23 13.2915C1234.23 15.1368 1238.66 18.836 1247.52 24.372 1252.88 21.5997 1256.57 17.1692 1258.6 11.0805 1257.63 7.15173 1253.93 3.46106 1247.52 0 1238.66 6.78606 1234.23 11.2166 1234.23 13.2915Z" fill-rule="evenodd" transform="matrix(1 0 0 1.00205 7 22)"/><path d="M1201 13.2915C1206.4 20.6813 1210.09 24.372 1212.07 24.372 1219.46 18.9721 1223.15 15.2814 1223.15 13.2915L1223.15 8.861C1219.55 2.95083 1216.59 0 1214.29 0L1212.07 0C1206.72 2.77225 1203.02 7.20275 1201 13.2915Z" fill-rule="evenodd" transform="matrix(1 0 0 1.00205 7 22)"/><path d="M1165.54 13.2915C1165.54 15.1368 1169.97 18.836 1178.84 24.372 1184.19 21.5997 1187.88 17.1692 1189.92 11.0805 1188.95 7.15173 1185.26 3.46106 1178.84 0 1169.97 6.78606 1165.54 11.2166 1165.54 13.2915Z" fill-rule="evenodd" transform="matrix(1 0 0 1.00205 7 22)"/><path d="M1132.31 13.2915C1137.71 20.6813 1141.4 24.372 1143.38 24.372 1150.77 18.9721 1154.46 15.2814 1154.46 13.2915L1154.46 8.861C1150.87 2.95083 1147.91 0 1145.6 0L1143.38 0C1138.03 2.77225 1134.34 7.20275 1132.31 13.2915Z" fill-rule="evenodd" transform="matrix(1 0 0 1.00205 7 22)"/><path d="M1096.86 13.2915C1096.86 15.1368 1101.29 18.836 1110.15 24.372 1115.51 21.5997 1119.2 17.1692 1121.23 11.0805 1120.26 7.15173 1116.57 3.46106 1110.15 0 1101.29 6.78606 1096.86 11.2166 1096.86 13.2915Z" fill-rule="evenodd" transform="matrix(1 0 0 1.00205 7 22)"/><path d="M1063.63 13.2915C1069.03 20.6813 1072.72 24.372 1074.71 24.372 1082.09 18.9721 1085.78 15.2814 1085.78 13.2915L1085.78 8.861C1082.18 2.95083 1079.23 0 1076.92 0L1074.71 0C1069.35 2.77225 1065.66 7.20275 1063.63 13.2915Z" fill-rule="evenodd" transform="matrix(1 0 0 1.00205 7 22)"/><path d="M1028.17 15.511C1031.13 15.511 1035.56 18.4618 1041.46 24.372 1048.85 18.9721 1052.55 15.2814 1052.55 13.2915L1052.55 8.861C1051.9 5.81662 1048.21 2.86579 1041.46 0 1035.05 3.64815 1030.62 8.81848 1028.17 15.511Z" fill-rule="evenodd" transform="matrix(1 0 0 1.00205 7 22)"/><path d="M994.94 13.2915 1003.8 24.372C1010.68 24.372 1015.85 19.9415 1019.31 11.0805 1013.91 3.69067 1010.22 0 1008.23 0L1006.02 0C1004.18 0 1000.48 4.4305 994.94 13.2915Z" fill-rule="evenodd" transform="matrix(1 0 0 1.00205 7 22)"/><path d="M959.488 15.511C962.447 15.511 966.878 18.4618 972.788 24.372 980.169 18.9721 983.86 15.2814 983.86 13.2915L983.86 8.861C983.214 5.81662 979.523 2.86579 972.788 0 966.367 3.64815 961.937 8.81848 959.488 15.511Z" fill-rule="evenodd" transform="matrix(1 0 0 1.00205 7 22)"/><path d="M926.255 13.2915 935.116 24.372C941.995 24.372 947.166 19.9415 950.627 11.0805 945.227 3.69067 941.536 0 939.546 0L937.335 0C935.49 0 931.799 4.4305 926.255 13.2915Z" fill-rule="evenodd" transform="matrix(1 0 0 1.00205 7 22)"/><path d="M890.811 15.511C893.762 15.511 898.192 18.4618 904.102 24.372 911.484 18.9721 915.183 15.2814 915.183 13.2915L915.183 8.861C914.537 5.81662 910.837 2.86579 904.102 0 897.682 3.64815 893.252 8.81848 890.811 15.511Z" fill-rule="evenodd" transform="matrix(1 0 0 1.00205 7 22)"/><path d="M857.569 13.2915 866.439 24.372C873.31 24.372 878.48 19.9415 881.941 11.0805 876.541 3.69067 872.851 0 870.869 0L868.65 0C866.805 0 863.114 4.4305 857.569 13.2915Z" fill-rule="evenodd" transform="matrix(1 0 0 1.00205 7 22)"/><path d="M822.125 15.511C825.076 15.511 829.507 18.4618 835.417 24.372 842.798 18.9721 846.497 15.2814 846.497 13.2915L846.497 8.861C845.851 5.81662 842.152 2.86579 835.417 0 829.005 3.64815 824.566 8.81848 822.125 15.511Z" fill-rule="evenodd" transform="matrix(1 0 0 1.00205 7 22)"/><path d="M788.892 13.2915C794.794 19.848 797.753 23.5386 797.753 24.372 804.633 24.372 809.795 19.9415 813.264 11.0805 807.856 3.69067 804.165 0 802.184 0L799.964 0C798.119 0 794.428 4.4305 788.892 13.2915Z" fill-rule="evenodd" transform="matrix(1 0 0 1.00205 7 22)"/><path d="M753.44 15.511C756.391 15.511 760.821 18.4618 766.731 24.372 774.121 18.9721 777.812 15.2814 777.812 13.2915L777.812 8.861C777.166 5.81662 773.475 2.86579 766.731 0 760.32 3.64815 755.889 8.81848 753.44 15.511Z" fill-rule="evenodd" transform="matrix(1 0 0 1.00205 7 22)"/><path d="M720.207 13.2915C720.207 14.1249 723.158 17.8155 729.068 24.372 735.948 24.372 741.118 19.9415 744.579 11.0805 739.179 3.69067 735.48 0 733.498 0L731.279 0C729.434 0 725.743 4.4305 720.207 13.2915Z" fill-rule="evenodd" transform="matrix(1 0 0 1.00205 7 22)"/><path d="M684.754 15.511C687.705 15.511 692.144 18.4618 698.046 24.372 705.436 18.9721 709.126 15.2814 709.126 13.2915L709.126 8.861C708.48 5.81662 704.789 2.86579 698.046 0 691.634 3.64815 687.203 8.81848 684.754 15.511Z" fill-rule="evenodd" transform="matrix(1 0 0 1.00205 7 22)"/><path d="M651.521 13.2915C651.521 14.1249 654.472 17.8155 660.382 24.372 667.262 24.372 672.432 19.9415 675.893 11.0805 670.494 3.69067 666.803 0 664.813 0L662.602 0C660.757 0 657.057 4.4305 651.521 13.2915Z" fill-rule="evenodd" transform="matrix(1 0 0 1.00205 7 22)"/><path d="M618.288 13.2915C623.688 20.6813 627.379 24.372 629.369 24.372 636.75 18.9721 640.441 15.2814 640.441 13.2915L640.441 8.861C636.844 2.95083 633.884 0 631.58 0L629.369 0C624.011 2.77225 620.321 7.20275 618.288 13.2915Z" fill-rule="evenodd" transform="matrix(1 0 0 1.00205 7 22)"/><path d="M582.836 13.2915C582.836 15.1368 587.266 18.836 596.127 24.372 601.485 21.5997 605.176 17.1692 607.208 11.0805 606.239 7.15173 602.548 3.46106 596.127 0 587.266 6.78606 582.836 11.2166 582.836 13.2915Z" fill-rule="evenodd" transform="matrix(1 0 0 1.00205 7 22)"/><path d="M549.603 13.2915C555.003 20.6813 558.694 24.372 560.683 24.372 568.065 18.9721 571.755 15.2814 571.755 13.2915L571.755 8.861C568.158 2.95083 565.208 0 562.894 0L560.683 0C555.326 2.77225 551.635 7.20275 549.603 13.2915Z" fill-rule="evenodd" transform="matrix(1 0 0 1.00205 7 22)"/><path d="M514.15 13.2915C514.15 15.1368 518.581 18.836 527.45 24.372 532.799 21.5997 536.49 17.1692 538.522 11.0805 537.553 7.15173 533.862 3.46106 527.45 0 518.581 6.78606 514.15 11.2166 514.15 13.2915Z" fill-rule="evenodd" transform="matrix(1 0 0 1.00205 7 22)"/><path d="M480.917 13.2915C486.317 20.6813 490.017 24.372 491.998 24.372 499.379 18.9721 503.078 15.2814 503.078 13.2915L503.078 8.861C499.473 2.95083 496.522 0 494.209 0L491.998 0C486.641 2.77225 482.95 7.20275 480.917 13.2915Z" fill-rule="evenodd" transform="matrix(1 0 0 1.00205 7 22)"/><path d="M445.473 13.2915C445.473 15.1368 449.904 18.836 458.765 24.372 464.114 21.5997 467.813 17.1692 469.837 11.0805 468.868 7.15173 465.177 3.46106 458.765 0 449.904 6.78606 445.473 11.2166 445.473 13.2915Z" fill-rule="evenodd" transform="matrix(1 0 0 1.00205 7 22)"/><path d="M412.232 13.2915C417.632 20.6813 421.331 24.372 423.312 24.372 430.702 18.9721 434.393 15.2814 434.393 13.2915L434.393 8.861C430.787 2.95083 427.836 0 425.532 0L423.312 0C417.955 2.77225 414.264 7.20275 412.232 13.2915Z" fill-rule="evenodd" transform="matrix(1 0 0 1.00205 7 22)"/><path d="M376.788 13.2915C376.788 15.1368 381.218 18.836 390.079 24.372 395.437 21.5997 399.128 17.1692 401.16 11.0805 400.191 7.15173 396.491 3.46106 390.079 0 381.218 6.78606 376.788 11.2166 376.788 13.2915Z" fill-rule="evenodd" transform="matrix(1 0 0 1.00205 7 22)"/><path d="M343.555 13.2915C348.955 20.6813 352.646 24.372 354.627 24.372 362.017 18.9721 365.707 15.2814 365.707 13.2915L365.707 8.861C362.11 2.95083 359.151 0 356.846 0L354.627 0C349.278 2.77225 345.579 7.20275 343.555 13.2915Z" fill-rule="evenodd" transform="matrix(1 0 0 1.00205 7 22)"/><path d="M308.103 13.2915C308.103 15.1368 312.533 18.836 321.394 24.372 326.751 21.5997 330.442 17.1692 332.474 11.0805 331.505 7.15173 327.814 3.46106 321.394 0 312.533 6.78606 308.103 11.2166 308.103 13.2915Z" fill-rule="evenodd" transform="matrix(1 0 0 1.00205 7 22)"/><path d="M274.87 13.2915C280.269 20.6813 283.96 24.372 285.941 24.372 293.331 18.9721 297.022 15.2814 297.022 13.2915L297.022 8.861C293.425 2.95083 290.466 0 288.161 0L285.941 0C280.593 2.77225 276.902 7.20275 274.87 13.2915Z" fill-rule="evenodd" transform="matrix(1 0 0 1.00205 7 22)"/><path d="M239.417 13.2915C239.417 15.1368 243.848 18.836 252.709 24.372 258.066 21.5997 261.757 17.1692 263.789 11.0805 262.82 7.15173 259.129 3.46106 252.709 0 243.848 6.78606 239.417 11.2166 239.417 13.2915Z" fill-rule="evenodd" transform="matrix(1 0 0 1.00205 7 22)"/><path d="M206.184 13.2915C206.184 14.1249 209.135 17.8155 215.045 24.372 221.925 24.372 227.095 19.9415 230.556 11.0805 225.156 3.69067 221.465 0 219.476 0L217.265 0C215.419 0 211.72 4.4305 206.184 13.2915Z" fill-rule="evenodd" transform="matrix(1 0 0 1.00205 7 22)"/><path d="M170.732 15.511C173.691 15.511 178.121 18.4618 184.032 24.372 191.413 18.9721 195.104 15.2814 195.104 13.2915L195.104 8.861C194.457 5.81662 190.767 2.86579 184.032 0 177.611 3.64815 173.181 8.81848 170.732 15.511Z" fill-rule="evenodd" transform="matrix(1 0 0 1.00205 7 22)"/><path d="M137.499 13.2915C137.499 14.1249 140.458 17.8155 146.36 24.372 153.239 24.372 158.409 19.9415 161.871 11.0805 156.471 3.69067 152.78 0 150.79 0L148.579 0C146.734 0 143.035 4.4305 137.499 13.2915Z" fill-rule="evenodd" transform="matrix(1 0 0 1.00205 7 22)"/><path d="M102.046 15.511C105.005 15.511 109.436 18.4618 115.346 24.372 122.727 18.9721 126.418 15.2814 126.418 13.2915L126.418 8.861C125.772 5.81662 122.081 2.86579 115.346 0 108.926 3.64815 104.495 8.81848 102.046 15.511Z" fill-rule="evenodd" transform="matrix(1 0 0 1.00205 7 22)"/><path d="M68.813 13.2915 77.674 24.372C84.5536 24.372 89.724 19.9415 93.185 11.0805 87.7851 3.69067 84.0944 0 82.113 0L79.8935 0C78.0482 0 74.3575 4.4305 68.813 13.2915Z" fill-rule="evenodd" transform="matrix(1 0 0 1.00205 7 22)"/><path d="M33.3691 15.511C36.3199 15.511 40.7504 18.4618 46.6605 24.372 54.0419 18.9721 57.7411 15.2814 57.7411 13.2915L57.7411 8.861C57.0948 5.81662 53.3956 2.86579 46.6605 0 40.2402 3.64815 35.8097 8.81848 33.3691 15.511Z" fill-rule="evenodd" transform="matrix(1 0 0 1.00205 7 22)"/><path d="M0.127558 13.2915 8.99706 24.372C15.8682 24.372 21.0385 19.9415 24.4996 11.0805 19.0996 3.69067 15.409 0 13.4276 0L11.2081 0C9.36272 0 5.67206 4.4305 0.127558 13.2915Z" fill-rule="evenodd" transform="matrix(1 0 0 1.00205 7 22)"/><path d="M1302.91 327.933C1302.91 329.779 1307.35 333.478 1316.21 339.014 1321.56 336.242 1325.25 331.811 1327.28 325.722 1326.31 321.794 1322.62 318.103 1316.21 314.642 1307.35 321.428 1302.91 325.859 1302.91 327.933Z" fill-rule="evenodd" transform="matrix(1 0 0 1.00205 7 22)"/><path d="M1269.67 327.933C1275.07 335.323 1278.77 339.014 1280.75 339.014 1288.14 333.614 1291.83 329.923 1291.83 327.933L1291.83 323.503C1288.23 317.593 1285.28 314.642 1282.97 314.642L1280.75 314.642C1275.4 317.414 1271.71 321.845 1269.67 327.933Z" fill-rule="evenodd" transform="matrix(1 0 0 1.00205 7 22)"/><path d="M1234.23 327.933C1234.23 329.779 1238.66 333.478 1247.52 339.014 1252.88 336.242 1256.57 331.811 1258.6 325.722 1257.63 321.794 1253.93 318.103 1247.52 314.642 1238.66 321.428 1234.23 325.859 1234.23 327.933Z" fill-rule="evenodd" transform="matrix(1 0 0 1.00205 7 22)"/><path d="M1201 327.933C1206.4 335.323 1210.09 339.014 1212.07 339.014 1219.46 333.614 1223.15 329.923 1223.15 327.933L1223.15 323.503C1219.55 317.593 1216.59 314.642 1214.29 314.642L1212.07 314.642C1206.72 317.414 1203.02 321.845 1201 327.933Z" fill-rule="evenodd" transform="matrix(1 0 0 1.00205 7 22)"/><path d="M1165.54 327.933C1165.54 329.779 1169.97 333.478 1178.84 339.014 1184.19 336.242 1187.88 331.811 1189.92 325.722 1188.95 321.794 1185.26 318.103 1178.84 314.642 1169.97 321.428 1165.54 325.859 1165.54 327.933Z" fill-rule="evenodd" transform="matrix(1 0 0 1.00205 7 22)"/><path d="M1132.31 327.933C1137.71 335.323 1141.4 339.014 1143.38 339.014 1150.77 333.614 1154.46 329.923 1154.46 327.933L1154.46 323.503C1150.87 317.593 1147.91 314.642 1145.6 314.642L1143.38 314.642C1138.03 317.414 1134.34 321.845 1132.31 327.933Z" fill-rule="evenodd" transform="matrix(1 0 0 1.00205 7 22)"/><path d="M1096.86 327.933C1096.86 329.779 1101.29 333.478 1110.15 339.014 1115.51 336.242 1119.2 331.811 1121.23 325.722 1120.26 321.794 1116.57 318.103 1110.15 314.642 1101.29 321.428 1096.86 325.859 1096.86 327.933Z" fill-rule="evenodd" transform="matrix(1 0 0 1.00205 7 22)"/><path d="M1063.63 327.933C1069.03 335.323 1072.72 339.014 1074.71 339.014 1082.09 333.614 1085.78 329.923 1085.78 327.933L1085.78 323.503C1082.18 317.593 1079.23 314.642 1076.92 314.642L1074.71 314.642C1069.35 317.414 1065.66 321.845 1063.63 327.933Z" fill-rule="evenodd" transform="matrix(1 0 0 1.00205 7 22)"/><path d="M1028.17 330.153C1031.13 330.153 1035.56 333.104 1041.46 339.014 1048.85 333.614 1052.55 329.923 1052.55 327.933L1052.55 323.503C1051.9 320.459 1048.21 317.508 1041.46 314.642 1035.05 318.29 1030.62 323.46 1028.17 330.153Z" fill-rule="evenodd" transform="matrix(1 0 0 1.00205 7 22)"/><path d="M994.94 327.933 1003.8 339.014C1010.68 339.014 1015.85 334.583 1019.31 325.722 1013.91 318.333 1010.22 314.642 1008.23 314.642L1006.02 314.642C1004.18 314.642 1000.48 319.072 994.94 327.933Z" fill-rule="evenodd" transform="matrix(1 0 0 1.00205 7 22)"/><path d="M959.488 330.153C962.447 330.153 966.878 333.104 972.788 339.014 980.169 333.614 983.86 329.923 983.86 327.933L983.86 323.503C983.214 320.459 979.523 317.508 972.788 314.642 966.367 318.29 961.937 323.46 959.488 330.153Z" fill-rule="evenodd" transform="matrix(1 0 0 1.00205 7 22)"/><path d="M926.255 327.933 935.116 339.014C941.995 339.014 947.166 334.583 950.627 325.722 945.227 318.333 941.536 314.642 939.546 314.642L937.335 314.642C935.49 314.642 931.799 319.072 926.255 327.933Z" fill-rule="evenodd" transform="matrix(1 0 0 1.00205 7 22)"/><path d="M890.811 330.153C893.762 330.153 898.192 333.104 904.102 339.014 911.484 333.614 915.183 329.923 915.183 327.933L915.183 323.503C914.537 320.459 910.837 317.508 904.102 314.642 897.682 318.29 893.252 323.46 890.811 330.153Z" fill-rule="evenodd" transform="matrix(1 0 0 1.00205 7 22)"/><path d="M857.569 327.933 866.439 339.014C873.31 339.014 878.48 334.583 881.941 325.722 876.541 318.333 872.851 314.642 870.869 314.642L868.65 314.642C866.805 314.642 863.114 319.072 857.569 327.933Z" fill-rule="evenodd" transform="matrix(1 0 0 1.00205 7 22)"/><path d="M822.125 330.153C825.076 330.153 829.507 333.104 835.417 339.014 842.798 333.614 846.497 329.923 846.497 327.933L846.497 323.503C845.851 320.459 842.152 317.508 835.417 314.642 829.005 318.29 824.566 323.46 822.125 330.153Z" fill-rule="evenodd" transform="matrix(1 0 0 1.00205 7 22)"/><path d="M788.892 327.933C794.794 334.49 797.753 338.181 797.753 339.014 804.633 339.014 809.795 334.583 813.264 325.722 807.856 318.333 804.165 314.642 802.184 314.642L799.964 314.642C798.119 314.642 794.428 319.072 788.892 327.933Z" fill-rule="evenodd" transform="matrix(1 0 0 1.00205 7 22)"/><path d="M753.44 330.153C756.391 330.153 760.821 333.104 766.731 339.014 774.121 333.614 777.812 329.923 777.812 327.933L777.812 323.503C777.166 320.459 773.475 317.508 766.731 314.642 760.32 318.29 755.889 323.46 753.44 330.153Z" fill-rule="evenodd" transform="matrix(1 0 0 1.00205 7 22)"/><path d="M720.207 327.933C720.207 328.767 723.158 332.457 729.068 339.014 735.948 339.014 741.118 334.583 744.579 325.722 739.179 318.333 735.48 314.642 733.498 314.642L731.279 314.642C729.434 314.642 725.743 319.072 720.207 327.933Z" fill-rule="evenodd" transform="matrix(1 0 0 1.00205 7 22)"/><path d="M684.754 330.153C687.705 330.153 692.144 333.104 698.046 339.014 705.436 333.614 709.126 329.923 709.126 327.933L709.126 323.503C708.48 320.459 704.789 317.508 698.046 314.642 691.634 318.29 687.203 323.46 684.754 330.153Z" fill-rule="evenodd" transform="matrix(1 0 0 1.00205 7 22)"/><path d="M651.521 327.933C651.521 328.767 654.472 332.457 660.382 339.014 667.262 339.014 672.432 334.583 675.893 325.722 670.494 318.333 666.803 314.642 664.813 314.642L662.602 314.642C660.757 314.642 657.057 319.072 651.521 327.933Z" fill-rule="evenodd" transform="matrix(1 0 0 1.00205 7 22)"/><path d="M618.288 327.933C623.688 335.323 627.379 339.014 629.369 339.014 636.75 333.614 640.441 329.923 640.441 327.933L640.441 323.503C636.844 317.593 633.884 314.642 631.58 314.642L629.369 314.642C624.011 317.414 620.321 321.845 618.288 327.933Z" fill-rule="evenodd" transform="matrix(1 0 0 1.00205 7 22)"/><path d="M582.836 327.933C582.836 329.779 587.266 333.478 596.127 339.014 601.485 336.242 605.176 331.811 607.208 325.722 606.239 321.794 602.548 318.103 596.127 314.642 587.266 321.428 582.836 325.859 582.836 327.933Z" fill-rule="evenodd" transform="matrix(1 0 0 1.00205 7 22)"/><path d="M549.603 327.933C555.003 335.323 558.694 339.014 560.683 339.014 568.065 333.614 571.755 329.923 571.755 327.933L571.755 323.503C568.158 317.593 565.208 314.642 562.894 314.642L560.683 314.642C555.326 317.414 551.635 321.845 549.603 327.933Z" fill-rule="evenodd" transform="matrix(1 0 0 1.00205 7 22)"/><path d="M514.15 327.933C514.15 329.779 518.581 333.478 527.45 339.014 532.799 336.242 536.49 331.811 538.522 325.722 537.553 321.794 533.862 318.103 527.45 314.642 518.581 321.428 514.15 325.859 514.15 327.933Z" fill-rule="evenodd" transform="matrix(1 0 0 1.00205 7 22)"/><path d="M480.917 327.933C486.317 335.323 490.017 339.014 491.998 339.014 499.379 333.614 503.078 329.923 503.078 327.933L503.078 323.503C499.473 317.593 496.522 314.642 494.209 314.642L491.998 314.642C486.641 317.414 482.95 321.845 480.917 327.933Z" fill-rule="evenodd" transform="matrix(1 0 0 1.00205 7 22)"/><path d="M445.473 327.933C445.473 329.779 449.904 333.478 458.765 339.014 464.114 336.242 467.813 331.811 469.837 325.722 468.868 321.794 465.177 318.103 458.765 314.642 449.904 321.428 445.473 325.859 445.473 327.933Z" fill-rule="evenodd" transform="matrix(1 0 0 1.00205 7 22)"/><path d="M412.232 327.933C417.632 335.323 421.331 339.014 423.312 339.014 430.702 333.614 434.393 329.923 434.393 327.933L434.393 323.503C430.787 317.593 427.836 314.642 425.532 314.642L423.312 314.642C417.955 317.414 414.264 321.845 412.232 327.933Z" fill-rule="evenodd" transform="matrix(1 0 0 1.00205 7 22)"/><path d="M376.788 327.933C376.788 329.779 381.218 333.478 390.079 339.014 395.437 336.242 399.128 331.811 401.16 325.722 400.191 321.794 396.491 318.103 390.079 314.642 381.218 321.428 376.788 325.859 376.788 327.933Z" fill-rule="evenodd" transform="matrix(1 0 0 1.00205 7 22)"/><path d="M343.555 327.933C348.955 335.323 352.646 339.014 354.627 339.014 362.017 333.614 365.707 329.923 365.707 327.933L365.707 323.503C362.11 317.593 359.151 314.642 356.846 314.642L354.627 314.642C349.278 317.414 345.579 321.845 343.555 327.933Z" fill-rule="evenodd" transform="matrix(1 0 0 1.00205 7 22)"/><path d="M308.103 327.933C308.103 329.779 312.533 333.478 321.394 339.014 326.751 336.242 330.442 331.811 332.474 325.722 331.505 321.794 327.814 318.103 321.394 314.642 312.533 321.428 308.103 325.859 308.103 327.933Z" fill-rule="evenodd" transform="matrix(1 0 0 1.00205 7 22)"/><path d="M274.87 327.933C280.269 335.323 283.96 339.014 285.941 339.014 293.331 333.614 297.022 329.923 297.022 327.933L297.022 323.503C293.425 317.593 290.466 314.642 288.161 314.642L285.941 314.642C280.593 317.414 276.902 321.845 274.87 327.933Z" fill-rule="evenodd" transform="matrix(1 0 0 1.00205 7 22)"/><path d="M239.417 327.933C239.417 329.779 243.848 333.478 252.709 339.014 258.066 336.242 261.757 331.811 263.789 325.722 262.82 321.794 259.129 318.103 252.709 314.642 243.848 321.428 239.417 325.859 239.417 327.933Z" fill-rule="evenodd" transform="matrix(1 0 0 1.00205 7 22)"/><path d="M206.184 327.933C206.184 328.767 209.135 332.457 215.045 339.014 221.925 339.014 227.095 334.583 230.556 325.722 225.156 318.333 221.465 314.642 219.476 314.642L217.265 314.642C215.419 314.642 211.72 319.072 206.184 327.933Z" fill-rule="evenodd" transform="matrix(1 0 0 1.00205 7 22)"/><path d="M170.732 330.153C173.691 330.153 178.121 333.104 184.032 339.014 191.413 333.614 195.104 329.923 195.104 327.933L195.104 323.503C194.457 320.459 190.767 317.508 184.032 314.642 177.611 318.29 173.181 323.46 170.732 330.153Z" fill-rule="evenodd" transform="matrix(1 0 0 1.00205 7 22)"/><path d="M137.499 327.933C137.499 328.767 140.458 332.457 146.36 339.014 153.239 339.014 158.409 334.583 161.871 325.722 156.471 318.333 152.78 314.642 150.79 314.642L148.579 314.642C146.734 314.642 143.035 319.072 137.499 327.933Z" fill-rule="evenodd" transform="matrix(1 0 0 1.00205 7 22)"/><path d="M102.046 330.153C105.005 330.153 109.436 333.104 115.346 339.014 122.727 333.614 126.418 329.923 126.418 327.933L126.418 323.503C125.772 320.459 122.081 317.508 115.346 314.642 108.926 318.29 104.495 323.46 102.046 330.153Z" fill-rule="evenodd" transform="matrix(1 0 0 1.00205 7 22)"/><path d="M68.813 327.933 77.674 339.014C84.5536 339.014 89.724 334.583 93.185 325.722 87.7851 318.333 84.0944 314.642 82.113 314.642L79.8935 314.642C78.0482 314.642 74.3575 319.072 68.813 327.933Z" fill-rule="evenodd" transform="matrix(1 0 0 1.00205 7 22)"/><path d="M33.3691 330.153C36.3199 330.153 40.7504 333.104 46.6605 339.014 54.0419 333.614 57.7411 329.923 57.7411 327.933L57.7411 323.503C57.0948 320.459 53.3956 317.508 46.6605 314.642 40.2402 318.29 35.8097 323.46 33.3691 330.153Z" fill-rule="evenodd" transform="matrix(1 0 0 1.00205 7 22)"/><path d="M0.127558 327.933 8.99706 339.014C15.8682 339.014 21.0385 334.583 24.4996 325.722 19.0996 318.333 15.409 314.642 13.4276 314.642L11.2081 314.642C9.36272 314.642 5.67206 319.072 0.127558 327.933Z" fill-rule="evenodd" transform="matrix(1 0 0 1.00205 7 22)"/><path d="M489.166 264.878C489.166 265.388 493.035 268.832 500.774 275.193L503.351 275.193C510.23 269.41 513.666 265.966 513.666 264.878L513.666 259.724C511.735 256.501 508.291 253.491 503.351 250.693L502.067 250.693C493.469 257.87 489.166 262.598 489.166 264.878Z" fill-rule="evenodd" transform="matrix(1 0 0 1.00205 7 22)"/><path d="M80.4293 217.171C89.2733 225.768 94.0014 230.063 94.6137 230.063L95.9063 230.063C104.504 224.977 108.798 219.816 108.798 214.594 108.798 209.705 104.504 204.976 95.9063 200.41 85.5911 209.543 80.4293 215.13 80.4293 217.171Z" fill-rule="evenodd" transform="matrix(1 0 0 1.00205 7 22)"/><path d="M711.984 212.018 711.984 215.887C711.984 221.312 715.853 226.04 723.591 230.063 732.189 224.059 736.483 219.765 736.483 217.171L736.483 213.302 724.884 200.41 724.884 197.833C724.884 194.797 727.027 190.069 731.33 183.649 731.33 182.195 730.471 181.336 728.753 181.072 717.571 191.898 711.984 202.213 711.984 212.018Z" fill-rule="evenodd" transform="matrix(1 0 0 1.00205 7 22)"/><path d="M888.88 196.541C883.268 204.101 868.225 217.86 843.751 237.801L843.751 240.378C861.609 235.616 870.631 232.605 870.827 231.355 884.926 231.355 896.968 210.725 906.934 169.464L906.934 168.172 901.772 168.172C901.772 172.39 897.478 181.846 888.88 196.541Z" fill-rule="evenodd" transform="matrix(1 0 0 1.00205 7 22)"/><path d="M563.957 182.356C540.878 197.833 513.802 205.572 482.72 205.572L481.436 205.572C454.785 205.572 441.46 199.117 441.46 186.226L441.46 181.072 436.306 181.072C434.589 190.231 433.721 196.243 433.721 199.117L433.721 210.725C433.721 224.127 447.48 231.866 474.982 233.932 508.376 233.932 535.453 226.202 556.219 210.725 569.97 195.656 576.849 181.906 576.849 169.464L576.849 168.172 574.264 168.172C573.626 168.172 570.182 172.9 563.957 182.356Z" fill-rule="evenodd" transform="matrix(1 0 0 1.00205 7 22)"/><path d="M1146.76 169.464 1144.17 169.464C1143.43 169.464 1139.99 168.606 1133.86 166.888L1131.28 166.888C1111.03 192.671 1076.65 205.572 1028.13 205.572L1026.85 205.572C1000.2 205.572 986.87 199.117 986.87 186.226L986.87 181.072 981.717 181.072C979.999 190.231 979.132 196.243 979.132 199.117L979.132 208.148C979.132 211.882 979.999 215.317 981.717 218.464 988.903 228.779 1001.36 233.932 1019.11 233.932 1034.47 233.932 1052.52 231.789 1073.26 227.486 1093.58 221.95 1110.35 209.05 1123.54 188.802 1132.49 192.246 1138.08 193.964 1140.3 193.964L1142.89 193.964C1152.86 193.964 1159.31 183.215 1162.23 161.726L1157.07 161.726C1157.07 165.825 1153.63 168.401 1146.76 169.464Z" fill-rule="evenodd" transform="matrix(1 0 0 1.00205 7 22)"/><path d="M774.121 190.095 774.121 191.387C788.952 198.258 796.69 203.845 797.328 208.148 797.328 215.02 783.578 225.335 756.068 239.094L756.068 240.378 757.36 242.963 771.545 239.094C795.61 233.243 807.643 218.634 807.643 195.257L807.643 188.802C807.643 178.359 801.197 169.328 788.306 161.726 783.203 164.218 778.475 173.665 774.121 190.095Z" fill-rule="evenodd" transform="matrix(1 0 0 1.00205 7 22)"/><path d="M1048.76 148.834 1039.74 142.388 1038.45 142.388C1029.85 149.557 1025.55 154.285 1025.55 156.573 1033.29 163.452 1037.16 167.313 1037.16 168.172 1038.37 168.172 1042.24 165.17 1048.76 159.149 1053.06 162.296 1055.21 164.439 1055.21 165.595 1059.54 165.595 1064.26 161.301 1069.39 152.703 1069.39 149.523 1065.96 145.22 1059.08 139.812 1055.21 139.812 1051.77 142.822 1048.76 148.834Z" fill-rule="evenodd" transform="matrix(1 0 0 1.00205 7 22)"/><path d="M193.896 148.834 184.873 142.388 183.581 142.388C176.999 147.516 172.704 152.244 170.689 156.573 178.428 163.452 182.297 167.313 182.297 168.172 189.168 164.736 192.612 161.726 192.612 159.149L193.896 159.149C198.199 162.296 200.35 164.439 200.35 165.595 203.786 165.595 208.514 161.726 214.526 153.996L214.526 150.127C208.888 143.247 205.019 139.812 202.927 139.812 196.906 144.565 193.896 147.576 193.896 148.834Z" fill-rule="evenodd" transform="matrix(1 0 0 1.00205 7 22)"/><path d="M356.362 135.942C354.321 144.54 350.452 148.834 344.754 148.834L342.177 148.834 335.731 147.55C332.466 153.562 328.597 156.573 324.124 156.573 323.375 156.573 319.94 155.714 313.809 153.996L312.525 153.996 309.948 155.28C301.759 169.898 292.736 177.203 282.863 177.203L276.417 177.203C272.684 177.203 269.248 176.344 266.102 174.626L267.395 168.172 262.233 168.172C262.233 172.067 257.513 178.513 248.057 187.518 221.482 199.551 194.84 205.572 168.112 205.572 141.461 205.572 128.144 199.985 128.144 188.802L128.144 181.072 122.982 181.072C120.406 190.792 119.113 198.531 119.113 204.279 119.113 224.051 133.731 233.932 162.951 233.932 213.82 233.932 246.05 219.748 259.656 191.387L262.233 191.387C262.233 196.915 266.102 200.359 273.841 201.702L280.286 201.702C287.302 201.702 295.891 193.105 306.079 175.91L316.394 181.072C324.421 181.072 330.008 177.628 333.155 170.757L339.601 172.041 348.623 169.464C354.644 162.993 358.938 151.819 361.524 135.942Z" fill-rule="evenodd" transform="matrix(1 0 0 1.00205 7 22)"/><path d="M628.425 148.834C628.425 150.552 629.284 151.411 631.002 151.411L632.294 151.411 637.448 147.55 640.024 147.55C643.009 147.55 653.749 150.986 672.262 157.865L672.262 160.442 670.97 160.442C653.171 176.769 641.563 184.941 636.155 184.941 636.155 170.323 631.861 163.019 623.263 163.019L616.817 163.019C612.523 163.019 607.361 172.9 601.349 192.671 603.33 200.41 607.633 204.279 614.241 204.279L627.132 204.279C625.389 213.234 611.205 224.416 584.579 237.801L584.579 241.671C591.663 241.671 601.978 238.235 615.525 231.355 623.076 231.355 629.522 221.899 634.871 202.987 641.079 202.987 659.983 184.508 691.6 147.55L691.6 142.388C670.842 133.791 659.66 129.496 658.078 129.496L650.339 129.496C643.213 129.496 635.908 135.942 628.425 148.834Z" fill-rule="evenodd" transform="matrix(1 0 0 1.00205 7 22)"/><path d="M886.304 141.096 886.304 144.965C888.88 144.965 892.316 147.975 896.619 153.996 900.939 153.996 905.667 149.693 910.795 141.096 910.795 137.915 907.359 133.621 900.48 128.204 897.342 128.204 892.614 132.507 886.304 141.096Z" fill-rule="evenodd" transform="matrix(1 0 0 1.00205 7 22)"/><path d="M1127.41 130.78 1127.41 134.65C1129.99 134.65 1133.43 137.66 1137.73 143.681 1142.06 143.681 1146.78 139.378 1151.91 130.78 1151.91 127.6 1148.48 123.306 1141.6 117.889 1138.46 117.889 1133.73 122.192 1127.41 130.78Z" fill-rule="evenodd" transform="matrix(1 0 0 1.00205 7 22)"/><path d="M1209.93 139.812 1209.93 143.681C1209.93 150.229 1214.24 154.098 1222.83 155.28L1225.41 155.28 1234.43 153.996C1234.43 154.855 1234.87 155.28 1235.73 155.28L1235.73 156.573C1232.89 174.626 1226.45 183.649 1216.38 183.649L1216.38 181.072C1216.38 173.334 1212.94 167.313 1206.07 163.019L1200.91 163.019C1193.16 163.019 1187.14 172.475 1182.86 191.387L1182.86 193.964C1182.86 200.52 1187.15 204.39 1195.75 205.572L1200.91 205.572C1202.84 205.572 1204.56 205.138 1206.07 204.279L1207.36 204.279C1207.36 205.189 1206.92 206.482 1206.07 208.148 1203.67 214.603 1189.92 225.343 1164.8 240.378L1166.1 242.963C1198.76 235.752 1215.1 222.86 1215.1 204.279 1235.73 189.04 1246.04 168.41 1246.04 142.388L1246.04 141.096C1246.04 125.797 1240.88 117.2 1230.56 115.312L1227.99 115.312C1220.66 115.312 1214.64 123.476 1209.93 139.812Z" fill-rule="evenodd" transform="matrix(1 0 0 1.00205 7 22)"/><path d="M930.141 130.78C927.564 183.054 925.413 211.422 923.695 215.887L926.272 217.171C928.202 216.848 931.213 209.977 935.294 196.541 938.126 152.958 940.703 123.731 943.033 108.866 942.123 108.866 940.83 108.432 939.164 107.574Z" fill-rule="evenodd" transform="matrix(1 0 0 1.00205 7 22)"/><path d="M835.493 130.78C832.917 183.054 830.765 211.422 829.047 215.887L831.624 217.171C833.555 216.848 836.565 209.977 840.647 196.541 843.479 152.958 846.055 123.731 848.385 108.866 847.475 108.866 846.183 108.432 844.516 107.574Z" fill-rule="evenodd" transform="matrix(1 0 0 1.00205 7 22)"/><path d="M384.731 130.78C382.154 183.054 380.002 211.422 378.285 215.887L380.861 217.171C382.792 216.848 385.802 209.977 389.884 196.541 392.716 152.958 395.292 123.731 397.622 108.866 396.712 108.866 395.42 108.432 393.753 107.574Z" fill-rule="evenodd" transform="matrix(1 0 0 1.00205 7 22)"/><path d="M641.317 101.128C647.601 108.866 651.904 112.735 654.209 112.735 661.947 106 665.816 102.131 665.816 101.128L665.816 97.2584C660.17 90.3873 656.309 86.9432 654.209 86.9432 645.611 94.1205 641.317 98.8486 641.317 101.128Z" fill-rule="evenodd" transform="matrix(1 0 0 1.00205 7 22)"/><path d="M1211.23 89.5199C1219.34 97.2584 1223.63 101.128 1224.12 101.128 1232.72 95.7022 1237.01 90.974 1237.01 86.9432 1234.85 82.5552 1230.98 78.686 1225.41 75.344L1224.12 75.344C1219.58 78.4309 1215.28 83.159 1211.23 89.5199Z" fill-rule="evenodd" transform="matrix(1 0 0 1.00205 7 22)"/><path d="M949.479 74.5701C944.963 74.5701 935.941 73.7113 922.403 71.9935L919.826 71.9935C909.511 79.1027 904.349 85.1149 904.349 90.0471L905.642 92.6238C909.936 89.4774 912.088 87.3344 912.088 86.1779 923.636 87.8957 930.949 88.7545 934.01 88.7545L939.164 88.7545C954.709 88.7545 967.167 81.8834 976.555 68.1242L976.555 66.8402 973.978 66.8402C966.767 71.9935 958.603 74.5701 949.479 74.5701Z" fill-rule="evenodd" transform="matrix(1 0 0 1.00205 7 22)"/></g></g></g></g></svg>